{"title":"Mission.Impossible.Rogue.Nation.2015.HDRiP.XViD.ReLeNTLesS","uid":12483491,"size":1709326923,"categoryP":"video","categoryS":"movies","magnet":"?xt=urn:btih:b902b71571b979e53fc314ea68fecac3ead05133&amp;dn=Mission.Impossible.Rogue.Nation.2015.HDRiP.XViD.ReLeNTLesS&amp;tr=udp%3A%2F%2Ftracker.leechers-paradise.org%3A6969&amp;tr=udp%3A%2F%2Fzer0day.ch%3A1337&amp;tr=udp%3A%2F%2Fopen.demonii.com%3A1337&amp;tr=udp%3A%2F%2Ftracker.coppersurfer.tk%3A6969&amp;tr=udp%3A%2F%2Fexodus.desync.com%3A6969","seeders":0,"leechers":0,"uploader":"TvTeam","files":5,"time":1443086255,"description":"------------------------------------------------------------------------\r\n\r  https://www.torrenting.com\r\n\r\nSign up is OPEN - for time being. Come and have fun.\r\n\r\n------------------------------------------------------------------------P0STER\r\n[img]http://i.imgur.com/if7RL5M.png[/img]\r\n\r\niMDB: http://www.imdb.com/title/tt2381249/\r\n\r\nGeneral\r\nComplete name               : Mission.Impossible.Rogue.Nation.2015.HDRiP.XViD.ReLeNTLesS.avi\r\nFormat                      : AVI\r\nFormat/Info                 : Audio Video Interleave\r\nFile size                   : 1.56 GiB\r\nDuration                    : 2h 11mn\r\nOverall bit rate            : 1 701 Kbps\r\n\r\nVideo\r\nID                          : 0\r\nFormat                      : MPEG-4 Visual\r\nFormat profile              : Advanced   \r\nFormat settings, BVOP       : 1\r\nFormat settings, QPel       : No\r\nFormat settings, GMC        : No warppoints\r\nFormat settings, Matrix     : Default (H.263)\r\nMuxing mode                 : Packed bitstream\r\nCodec ID                    : XVID\r\nCodec ID/Hint               : XviD\r\nDuration                    : 2h 11mn\r\nBit rate                    : 1 502 Kbps\r\nWidth                       : 720 pixels\r\nHeight                      : 304 pixels\r\nDisplay aspect ratio        : 2.35:1\r\nFrame rate                  : 23.976 fps\r\nColor space                 : YUV\r\nChroma subsampling          : 4:2:0\r\nBit depth                   : 8 bits\r\nScan type                   : Progressive\r\nCompression mode            : Lossy\r\nBits/(Pixel*Frame)          : 0.286\r\nStream size                 : 1.38 GiB (88%)\r\nWriting library             : XviD 1.2.1 (UTC 2008-12-04)\r\n\r\nAudio\r\nID                          : 1\r\nFormat                      : AC-3\r\nFormat/Info                 : Audio Coding 3\r\nMode extension              : CM (complete main)\r\nFormat settings, Endianness : Big\r\nCodec ID                    : 2000\r\nDuration                    : 2h 11mn\r\nBit rate mode               : Constant\r\nBit rate                    : 192 Kbps\r\nChannel(s)                  : 2 channels\r\nChannel positions           : Front: L R\r\nSampling rate               : 48.0 KHz\r\nCompression mode            : Lossy\r\nStream size                 : 180 MiB (11%)\r\nAlignment                   : Aligned on interleaves\r\nInterleave, duration        : 64 ms (1.53 video frames)\r\nInterleave, preload duratio : 192 ms\r\nTitle                       : Mission.Impossible.Rogue.Nation.2015.ReLeNTLesS.audio.2.0.english\r\nSample Included             : Yes\r\nSource                      : SHOWSCEN 1080 Thanks\r\n\r\nPL0T\r\nEthan and team take on their most impossible mission yet, eradicating the Syndicate - an International rogue organization as highly skilled as they are, committed to destroying the IMF.\r\n\r\nCAST\r\nDirector: Christopher McQuarrie\r\nWriters: Christopher McQuarrie (screenplay), Christopher McQuarrie (story)\r\nStars: Tom Cruise, Rebecca Ferguson, Jeremy Renner \r\n\r\nN0TE\r\nCropped black boarders, resized, degrained sharpened and brightened\r\n\r\nSCREENS\r\n[img]http://i.imgur.com/tsQljlQ.png[/img]\r\n[img]http://i.imgur.com/LuWX0df.png[/img]\r\n[img]http://i.imgur.com/7OIutOZ.png[/img]\r\n[img]http://i.imgur.com/e3EUBTt.png[/img]\r\n[img]http://i.imgur.com/ljHpInp.png[/img]\r\n[img]http://i.imgur.com/rI2sK7O.png[/img]\r\n\r\nTRAiLER\r\n\r\nGREETZ\r\n\r\n\r\nHIVE-CM8, Blackjesus, M0RPH, M00SE, MiLLENiUM,\r\n\r\nMANiX, TiTAN, Anonymous, TuX, \r\n\r\nACAB, KingStoner, FooKas, 4PlayHD, \r\n\r\nGodFather, Cld.... \r\n\r\nKeep up the good work guyz","torrent":{"xt":"urn:btih:b902b71571b979e53fc314ea68fecac3ead05133","amp;dn":"Mission.Impossible.Rogue.Nation.2015.HDRiP.XViD.ReLeNTLesS","amp;tr":["udp%3A%2F%2Ftracker.leechers-paradise.org%3A6969","udp%3A%2F%2Fzer0day.ch%3A1337","udp%3A%2F%2Fopen.demonii.com%3A1337","udp%3A%2F%2Ftracker.coppersurfer.tk%3A6969","udp%3A%2F%2Fexodus.desync.com%3A6969"],"infoHash":"b902b71571b979e53fc314ea68fecac3ead05133","infoHashBuffer":{"type":"Buffer","data":[185,2,183,21,113,185,121,229,63,195,20,234,104,254,202,195,234,208,81,51]},"announce":[],"urlList":[]}}